<svg id="Ebene_1" data-name="Ebene 1" xmlns="http://www.w3.org/2000/svg" viewBox="0 0 227.31 453.26"><defs><style>.cls-1{fill:#cf9e9f;}.cls-2{fill:#c10812;}.cls-3{fill:#702121;}.cls-4{fill:#f4d5dd;}.cls-5{fill:#b73838;}.cls-6{fill:#961c21;}.cls-7{fill:#be7070;}.cls-8{fill:#fefefe;}.cls-9{fill:#e8cacb;}.cls-10{fill:#ebd9d9;}</style></defs><title>pattern_red_right</title><path class="cls-1" d="M1920,465a68.72,68.72,0,0,1-5.62-5.36Q1896.61,442,1879,424.24q-11.65-11.67-23.27-23.37c-0.65-.65-0.84-1-0.08-1.77q31.84-31.77,63.64-63.59c0.22-.22.48-0.42,0.72-0.63Q1920,399.92,1920,465Z" transform="translate(-1692.67 -334.88)"/><path class="cls-2" d="M1888.54,625.52L1889,625a3.14,3.14,0,0,1,.94-1.22c8-8.05,16.08-16.13,24.17-24.13,1.59-1.57,3.25-3.07,4.85-4.63a1,1,0,0,1,1-.49V722.72a1.75,1.75,0,0,1-1-.77c-17.36-16.73-34.18-34-51.14-51.12-3.77-3.81-7.53-7.62-11.33-11.39-0.59-.58-0.61-0.89,0-1.48,3.59-3.58,7.14-7.2,10.71-10.81a2.32,2.32,0,0,1,.74-1.07c5.79-5.63,11.21-11.62,17-17.24A19.79,19.79,0,0,1,1888.54,625.52Z" transform="translate(-1692.67 -334.88)"/><path class="cls-3" d="M1920,529a2.06,2.06,0,0,0-1,.81q-14.31,14.28-28.58,28.6c-0.69.7-1,.73-1.73,0q-15.4-15.48-30.86-30.9a1.56,1.56,0,0,1-.7-0.92,2.1,2.1,0,0,1,.83-1.14l28.66-28.66a2.72,2.72,0,0,1,1.24-.91c1.77-1.57,1.77-1.57,3.5.15L1920,524.72Q1920,526.88,1920,529Z" transform="translate(-1692.67 -334.88)"/><path class="cls-4" d="M1920,594.56c-5.4,5-10.62,10.25-15.86,15.45-4.76,4.73-9.48,9.49-14.22,14.23-0.28.28-.59,0.53-0.88,0.79a2.5,2.5,0,0,1-.24-1.4q0-30.83,0-61.65c0-.38-0.22-0.93.19-1.1s0.71,0.4,1,.69q14.47,14.45,28.93,28.91c0.34,0.34.71,0.63,1.07,0.95v3.12Z" transform="translate(-1692.67 -334.88)"/><path class="cls-5" d="M1920,523.52c-1.63-1.58-3.28-3.15-4.89-4.76q-11.7-11.71-23.38-23.43c-0.49-.49-0.83-0.77-0.13-1.47q13.95-13.87,27.84-27.79a0.84,0.84,0,0,1,.57-0.39Q1920,494.6,1920,523.52Z" transform="translate(-1692.67 -334.88)"/><path class="cls-2" d="M1888.55,494.45l-1,1.18a1.81,1.81,0,0,1-.58.88c-9.74,9.94-19.64,19.74-29.47,29.59a3.47,3.47,0,0,1-.66.52q-9.9,9.75-19.79,19.49c-4.18,4.12-8.33,8.27-12.5,12.4a1.17,1.17,0,0,1-1,.68,0.19,0.19,0,0,1-.22-0.23q-7.71-7.69-15.42-15.38t-15.67-15.47c-0.25-.25-0.55-0.46-0.82-0.68a3.27,3.27,0,0,1-1.18-.92c-8.24-8.26-16.51-16.48-24.73-24.76-1.8-1.81-3.47-3.75-5.3-5.53a1.15,1.15,0,0,1-.47-0.81l-0.78-1a7.42,7.42,0,0,1,3.37-.59c3.56-.05,7.11,0,10.67,0,9.67,0,19.35-.16,29,0,28.48,0.55,57,.08,85.46.27C1887.8,494.14,1888.34,493.81,1888.55,494.45Z" transform="translate(-1692.67 -334.88)"/><path class="cls-1" d="M1758.7,622.63c-0.43.52,0,1.18-.28,1.75a0.88,0.88,0,0,1-.82-0.53q-21.3-21.21-42.58-42.44c-7-7-13.86-14-20.83-20.91-0.74-.74-0.63-1.08,0-1.75q31.59-31.54,63.14-63.12a8.53,8.53,0,0,0,.78-1.09,2.27,2.27,0,0,1,.34,1.63q0,57.12,0,114.24a3,3,0,0,0,.15,1.64,1.54,1.54,0,0,1,.42,1.32c0,2.64,0,5.27,0,7.91A1.87,1.87,0,0,1,1758.7,622.63Z" transform="translate(-1692.67 -334.88)"/><path class="cls-6" d="M1888.55,494.45a1.59,1.59,0,0,0-1.26-.21H1760.19a1.65,1.65,0,0,0-1.26.2c-0.32-.35,0-0.39.21-0.35,1.07,0.2,1.68-.47,2.34-1.14q21.81-22.13,43.63-44.25a2.71,2.71,0,0,1,2.1-.89q21.72,0,43.43,0a1.32,1.32,0,0,1,1.34.58c0.26,0.53-.36.73-0.63,1q-22.07,21.78-44.18,43.54c-0.31.31-.67,0.56-1.11,0.92a2.37,2.37,0,0,0,1.54.26l79.9,0a1.12,1.12,0,0,1,1.18.21,0.12,0.12,0,0,1,0,.09A0.46,0.46,0,0,1,1888.55,494.45Z" transform="translate(-1692.67 -334.88)"/><path class="cls-6" d="M1758.7,622.63l0-10.58,0.24-26.62q-0.18-6.94,0-13.89c0.1-3.8.13-7.6,0-11.39a5.52,5.52,0,0,1,1.92-4.59c3.5-3.33,7-6.72,10.26-10.25,5.74-6.13,11.83-11.9,17.71-17.89a2.28,2.28,0,0,1,1.53-1.06,2.44,2.44,0,0,1,1.07,1.07q0.21,30.87.44,61.75a3,3,0,0,1-.93,2.32q-15.24,15.2-30.43,30.45A1.67,1.67,0,0,1,1758.7,622.63Z" transform="translate(-1692.67 -334.88)"/><path class="cls-3" d="M1692.67,494.42c0.28-.29.51-0.55,0.76-0.8L1721.07,466c1.13-1.13,2.28-2.24,3.38-3.4,0.47-.5.75-0.61,1.31,0q15.62,15.67,31.29,31.29a0.69,0.69,0,0,1,0,1.22q-15.67,15.63-31.29,31.29c-0.46.46-.71,0.54-1.21,0q-15.66-15.71-31.36-31.39C1693,494.81,1692.87,494.63,1692.67,494.42Z" transform="translate(-1692.67 -334.88)"/><path class="cls-3" d="M1866.93,646.87c-3.49,3.46-7,6.91-10.44,10.41-0.57.58-.86,0.63-1.47,0q-15.49-15.55-31-31c-0.65-.65-0.61-0.94,0-1.56q15.47-15.4,30.87-30.87c0.7-.7,1-0.73,1.74,0q15.27,15.35,30.6,30.63c0.28,0.28.58,0.54,0.87,0.82a0.45,0.45,0,0,1,0,.55,5.67,5.67,0,0,1-.58.61c-6.52,6.43-12.86,13-19.36,19.48A3.19,3.19,0,0,1,1866.93,646.87Z" transform="translate(-1692.67 -334.88)"/><path class="cls-7" d="M1759.34,493.55c-0.92-30.61,0-60.92-.89-91.21a1,1,0,0,1,.94.53L1804,447.48c0.46,0.46.78,0.73,0.12,1.39Q1782,470.9,1760,493C1759.88,493.1,1759.73,493.21,1759.34,493.55Z" transform="translate(-1692.67 -334.88)"/><path class="cls-7" d="M1823.17,624.51h-63.63a1.47,1.47,0,0,1,.69-1.09c10.85-11.65,22.16-22.85,33.46-34.06,9.9-9.83,19.58-19.89,29.33-29.88a1.63,1.63,0,0,1,.61,1.44,6.9,6.9,0,0,1,0,1.32q0,29.59,0,59.18A7.25,7.25,0,0,1,1823.17,624.51Z" transform="translate(-1692.67 -334.88)"/><path class="cls-7" d="M1856.86,788c-15.66-14.58-30.45-30-45.71-45-6.33-6.22-12.71-12.39-19.07-18.58a0.25,0.25,0,0,1,.23-0.33c0.36,0,.72,0,1.08,0h62.25c1.78,0,1.86.06,1.86,1.9q0,17.09,0,34.18c0,8.64,0,17.27,0,25.91C1857.48,786.72,1857.8,787.58,1856.86,788Z" transform="translate(-1692.67 -334.88)"/><path class="cls-4" d="M1856.86,788a1,1,0,0,0,.25-1.1q0-30.81,0-61.63c0-.89-0.22-1.15-1.13-1.15q-31.47,0-62.94,0a0.93,0.93,0,0,0-1,.23c-0.19-.16-0.25-0.37,0-0.42a5.48,5.48,0,0,1,1.07,0q31.38,0,62.75,0a2.83,2.83,0,0,1,2.2.91q15.12,15.17,30.29,30.28c0.78,0.78.79,1.18,0,2Q1873.2,772.2,1858,787.39C1857.74,787.68,1857.57,788.44,1856.86,788Z" transform="translate(-1692.67 -334.88)"/><path class="cls-5" d="M1856.78,527.52v64A0.87,0.87,0,0,1,1856,591q-15.36-15.34-30.71-30.68c-0.47-.47-0.65-0.73-0.07-1.3q15.55-15.49,31.05-31C1856.36,527.85,1856.49,527.76,1856.78,527.52Z" transform="translate(-1692.67 -334.88)"/><path class="cls-4" d="M1853.72,402a0.35,0.35,0,1,1,0,.06c0.06,8,.52,16.06.19,24.08-0.27,6.47-.08,12.94-0.16,19.41,0,1-.33,1.18-1.24,1.2-13.06.28-26.13,0.21-39.19,0.21a36.55,36.55,0,0,0-4.34-.22Z" transform="translate(-1692.67 -334.88)"/><path class="cls-4" d="M1823.17,624.51c0-.68.06-1.35,0.06-2q0-30.83,0-61.66a1.56,1.56,0,0,0-.21-1.36l0.28-.49,0.22,0.23a1.66,1.66,0,0,0,.81,1.5l30,30c1.09,1.09,1.09,1.09,0,2.22q-14.79,14.79-29.59,29.57A12.77,12.77,0,0,0,1823.17,624.51Z" transform="translate(-1692.67 -334.88)"/><path class="cls-8" d="M1790.31,526.37c-9.49,9.54-18.92,19.14-28.52,28.58a8.28,8.28,0,0,0-2.74,6.65c0.12,7.94-.08,15.89-0.16,23.84a1.68,1.68,0,0,1-.19-1.27q0-43.83,0-87.66c0-.76,0-1.35,1-1.09,4.31,4.39,8.61,8.8,12.94,13.17q8.41,8.47,16.88,16.89C1789.81,525.76,1790.05,526.07,1790.31,526.37Z" transform="translate(-1692.67 -334.88)"/><path class="cls-9" d="M1856.84,526.63c1.71-1.73,3.4-3.48,5.13-5.2q12.54-12.48,24.88-25.16c0.22-.23.47-0.42,0.71-0.63l0.29,0.3c-2.21,2.24-4.42,4.49-6.64,6.72L1857.83,526c-0.22.22-.47,0.41-0.71,0.62h-0.28Z" transform="translate(-1692.67 -334.88)"/><path class="cls-10" d="M1866.93,646.87c0.55-.58,1.08-1.17,1.64-1.73q9.36-9.37,18.73-18.75a1.44,1.44,0,0,0,.78-1.13l0.46,0.25q-6.24,6.37-12.48,12.73c-2.94,3-5.91,5.93-8.87,8.89Z" transform="translate(-1692.67 -334.88)"/></svg>