<?xml version="1.0" encoding="utf-8"?>
<!-- Generator: Adobe Illustrator 22.1.0, SVG Export Plug-In . SVG Version: 6.00 Build 0)  -->
<svg version="1.1" id="Ebene_1" xmlns="http://www.w3.org/2000/svg" xmlns:xlink="http://www.w3.org/1999/xlink" x="0px" y="0px"
	 viewBox="0 0 1133.9 1133.9" style="enable-background:new 0 0 1133.9 1133.9;" xml:space="preserve">
<style type="text/css">
	.st0{fill:#FAD902;}
	.st1{fill:#F9F19A;}
	.st2{fill:#FAEA27;}
	.st3{fill:#FFF097;}
	.st4{fill:#FFD004;}
	.st5{fill:#FDF6B6;}
	.st6{fill:#EDA21E;}
</style>
<path class="st0" d="M984.4,416c0.7,0.7,1.2,1.2,2.1,1.2c0.1,0,0.2,0.1,0.3,0.1c32.7-0.4,65.3-0.8,97.9-1.2c0.2,0,0.3,0,0.5,0
	c0.2-0.1,0.5-0.1,0.7,0c0,0,0.5-0.5,0.6-0.5c0,0,0.6-0.6,0.6-0.5l-1-0.9c-33.6-32.8-67.6-65.1-101.1-97.8c-0.6-0.6-1.5-0.7-2.4-0.7
	c-32.8,0.4-65.5,0.7-98.4,1.1c-0.4,0-0.8,0.1-1.1-0.1l1.1,1.1C917.9,350.3,951,383.3,984.4,416"/>
<path class="st0" d="M694.7,848.5c1-0.1,1.7-0.1,2.3-0.8c0.1-0.1,0.2-0.1,0.3-0.2c21.5-24.5,43.1-49,64.7-73.6
	c0.1-0.1,0.2-0.2,0.4-0.4c0.1-0.2,0.3-0.4,0.4-0.5c0,0,0-0.8,0-0.8c0,0,0-0.8,0-0.8l-1.3,0.1c-46.8,3-93.6,6.7-140.4,9.7
	c-0.9,0.1-1.5,0.6-2.2,1.3c-21.7,24.7-43.4,49.2-65,73.8c-0.2,0.3-0.4,0.7-0.8,0.7l1.6-0.1C601.4,854,648.1,851.5,694.7,848.5"/>
<path class="st1" d="M1106,438.3l-102.8,102.8l100.2,100.2c2.5-40.8,1.4-77.5,1.4-115.9C1104.7,496.8,1105.8,466.8,1106,438.3"/>
<path class="st2" d="M776,224.6l-13.2,140.9c26.1-21.3,51.4-42.6,77-63.8L776,224.6z"/>
<path class="st3" d="M897.1,290.1c67.6,1.7,135.1,2.9,202.7,4.4c1.5-67.4,3-134.9,4.4-202.7L897.1,290.1z"/>
<path class="st4" d="M847.5,520.2c-2.9-67.5-3.8-133.1-8.8-202.5L645,529C714.7,527.9,780.2,523.1,847.5,520.2"/>
<path class="st1" d="M864.4,526.7l101.9-103.8l-101.1-99.3c-2.1,40.9-0.7,77.5-0.4,115.9C865.1,468.3,864.4,498.2,864.4,526.7"/>
<path class="st5" d="M994.1,534.3l96.7-103.3c-33.6,0.8-66.8,2.2-100,3.3L994.1,534.3z"/>
<path class="st3" d="M807.3,667.4c47.7,48,95.6,95.5,143.4,143.3c47.7-47.7,95.5-95.4,143.3-143.4L807.3,667.4z"/>
<path class="st6" d="M935.3,228.5c-21.9-25.3-44-50.9-66.1-76.4c-25.4,22-51,44.1-76.4,66.1c22,25.5,44.1,51,66.1,76.4L935.3,228.5z
	"/>
<path class="st0" d="M985.7,549.4c-0.7-0.7-1.1-1.2-2-1.3c-0.1,0-0.1-0.1-0.3-0.1c-32.7,0.7-65.2,1.4-97.9,2.1c-0.2,0-0.3,0-0.5,0
	c-0.2,0.1-0.5,0.1-0.7,0c0,0-0.7,0.7-0.7,0.7c0,0-0.8,0.7-0.8,0.7l1,0.9c33.9,32.4,68.4,64.2,102.2,96.6c0.7,0.6,1.6,0.6,2.5,0.6
	c32.8-0.7,65.4-1.2,98.2-1.9c0.4,0,0.7,0,1,0.3l-1.1-1.1C1052.8,614.7,1019.5,581.8,985.7,549.4"/>
<path class="st1" d="M699.9,863.3l-145.1,6.3l6.1,141c28.1-28.3,53.4-55.9,79.3-84.2C659.6,905.2,680.5,884.2,699.9,863.3"/>
<path class="st2" d="M1116.4,821.2l-10.1-141c-22.3,25.2-43.7,50.4-65.5,75.5C1065.9,777.5,1090.8,799.4,1116.4,821.2"/>
<path class="st2" d="M979,434.4l-99.6,100.3c33.6,0.2,66.7-0.2,100-0.3C979.2,501.2,979.4,468,979,434.4"/>
<path class="st2" d="M1003.1,312.3l102.9,97.1c-0.7-33.6-1.9-66.8-2.9-100L1003.1,312.3z"/>
<path class="st6" d="M1096.2,838.4c-22.3-25-44.7-50.2-67.2-75.4c-25.1,22.4-50.3,44.9-75.4,67.2c22.4,25.1,44.9,50.3,67.2,75.4
	L1096.2,838.4z"/>
<path class="st0" d="M1114.7,982.2c0,1,0.1,1.7-0.5,2.4c-0.1,0.1,0,0.2-0.1,0.3c-23.5,22.7-47,45.3-70.5,68
	c-0.1,0.1-0.2,0.2-0.4,0.4c-0.2,0.1-0.4,0.3-0.5,0.5c0,0-1,0-1,0c0,0-1.1,0-1.1,0l0-1.3c0.9-46.9,2.6-93.8,3.5-140.7
	c0-0.9,0.7-1.6,1.4-2.2c23.7-22.8,46.9-45.6,70.6-68.4c0.3-0.2,0.5-0.5,0.5-0.9l0,1.6C1115.7,888.7,1115.6,935.5,1114.7,982.2"/>
<path class="st1" d="M965.4,649L860.7,548.3l-97.9,101.7c39.9,0.8,77.3,0,115.7-0.7C907.2,648.8,936.9,649.3,965.4,649"/>
</svg>
