<?xml version="1.0" encoding="utf-8"?>
<!-- Generator: Adobe Illustrator 22.1.0, SVG Export Plug-In . SVG Version: 6.00 Build 0)  -->
<svg version="1.1" id="Ebene_1" xmlns="http://www.w3.org/2000/svg" xmlns:xlink="http://www.w3.org/1999/xlink" x="0px" y="0px"
	 viewBox="0 0 1133.9 1133.9" style="enable-background:new 0 0 1133.9 1133.9;" xml:space="preserve">
<style type="text/css">
	.st0{fill:#376C38;}
	.st1{fill:#83C59A;}
	.st2{fill:#AAD3A8;}
	.st3{fill:#4EAE64;}
	.st4{fill:#8EC78D;}
	.st5{fill:#1CA463;}
	.st6{fill:#266C4E;}
</style>
<path class="st0" d="M1106.9,713.4c0.7,0.7,1.2,1.2,1.2,2.1c0,0.1,0.1,0.2,0.1,0.3c0,32.7,0,65.3,0,97.9c0,0.2,0,0.3,0,0.5
	c0,0.2-0.1,0.5,0,0.7c0,0-0.5,0.6-0.5,0.6c0,0-0.5,0.6-0.5,0.6l-0.9-0.9c-33.2-33.2-65.9-66.8-99-99.9c-0.6-0.6-0.7-1.5-0.7-2.4
	c0-32.8-0.1-65.6-0.1-98.4c0-0.4,0.1-0.8-0.1-1.1l1.1,1.1C1040.4,647.7,1073.8,680.4,1106.9,713.4"/>
<path class="st0" d="M718.7,806.1c1,0,1.7,0,2.4,0.5c0.1,0.1,0.2,0.1,0.3,0.2c23.9,22.3,47.8,44.5,71.6,66.8
	c0.1,0.1,0.3,0.2,0.4,0.3c0.1,0.2,0.3,0.4,0.5,0.5c0,0,0.1,0.8,0.1,0.8c0,0,0.1,0.8,0.1,0.8l-1.3,0c-46.9,1.6-93.8,2.6-140.6,4.3
	c-0.9,0-1.6-0.5-2.3-1.1c-24-22.4-48-44.6-72-67c-0.3-0.2-0.5-0.7-0.9-0.6l1.6-0.1C625.2,809.8,672,807.7,718.7,806.1"/>
<path class="st1" d="M1106.9,695.6l-102.9-102.9l100.2-100.2c2.5,40.8,1.4,77.5,1.4,115.9C1105.7,637.2,1106.7,667.1,1106.9,695.6"
	/>
<path class="st2" d="M970.8,716.5l-100,100c-0.3-33.6,0-66.7,0-100C904,716.5,937.1,716.2,970.8,716.5"/>
<path class="st3" d="M655,890.3h141.5c-23.6,24-47.2,47.2-70.7,70.7L655,890.3z"/>
<path class="st4" d="M882.9,1043.9c-1.7-67.6-2.9-135.1-4.4-202.7c67.4-1.5,134.9-3,202.7-4.4L882.9,1043.9z"/>
<path class="st5" d="M860.4,595.8c-2.9,67.5-3.8,133.1-8.8,202.5L657.9,586.9C727.6,588,793.1,592.8,860.4,595.8"/>
<path class="st6" d="M1110.1,971.4c-23.5,23.9-47.1,48-70.8,72c-24-23.6-48.1-47.2-72.1-70.8c23.6-24,47.3-48.1,70.8-72
	L1110.1,971.4z"/>
<path class="st1" d="M887.6,824.9l100.1-105.5l102.8,97.5c-40.8,3.6-77.4,3.5-115.8,4.5C946,822.1,916.1,823.9,887.6,824.9"/>
<path class="st2" d="M1112.5,989.2l-7.6,141.2c-22.7-24.8-44.6-49.7-66.8-74.4C1062.8,1033.8,1087.3,1011.4,1112.5,989.2"/>
<path class="st3" d="M988.8,695.1L888.8,595.1c33.6-0.3,66.8,0,100.1,0V695.1z"/>
<path class="st4" d="M904.7,241.9c67.7-0.2,135.1,0,202.7,0c0,67.4,0.1,134.9,0,202.7L904.7,241.9z"/>
<path class="st5" d="M867.9,454c-67.5-1.5-134.1-1.8-202.7-4.4l207.1-198.2C871.9,320,869.4,386.6,867.9,454"/>
<path class="st6" d="M988.5,449.9c-33.5,1-67.2,2.1-101,3.1c-1-33.6-2.1-67.4-3.1-101c33.7-1,67.4-2.1,101-3.1L988.5,449.9z"/>
<path class="st0" d="M1004.7,575.5c-0.7,0.7-1.1,1.2-2,1.3c-0.1,0-0.1,0.1-0.3,0.1c-32.7-0.7-65.2-1.4-97.9-2.1c-0.2,0-0.3,0-0.5,0
	c-0.2-0.1-0.5-0.1-0.7,0c0,0-0.7-0.7-0.7-0.7c0,0-0.8-0.7-0.8-0.7l1-0.9c33.9-32.4,68.4-64.2,102.2-96.6c0.7-0.6,1.6-0.6,2.5-0.6
	c32.8,0.7,65.4,1.2,98.2,1.9c0.4,0,0.7,0,1-0.3l-1.1,1.1C1071.7,510.3,1038.4,543.2,1004.7,575.5"/>
<path class="st1" d="M898.2,226.6l101.1-104.3l101.4,98.2c-39.9,2.2-77.2,2.8-115.6,3.4C956.4,224.3,926.7,225.9,898.2,226.6"/>
<path class="st3" d="M1008.5,362.5l92.8,106.7c-33.6-2.1-66.6-4.7-99.7-7C1003.9,429.1,1005.9,396,1008.5,362.5"/>
<path class="st3" d="M875.5,601.9L972.5,705c-33.6-0.7-66.8-2-100-3.1L875.5,601.9z"/>
<path class="st6" d="M799.8,303.7c-25.3,22-50.8,44.1-76.2,66.3c-22.1-25.4-44.2-50.9-66.3-76.2c25.4-22.1,50.9-44.2,76.2-66.3
	L799.8,303.7z"/>
<path class="st0" d="M1008.5,109.4c-0.7-0.7-1.2-1.1-1.3-2c0-0.1-0.1-0.1-0.1-0.3c0.8-32.7,1.5-65.2,2.3-97.9c0-0.2,0-0.3,0-0.5
	c0.1-0.2,0.1-0.5,0-0.7c0,0,0.7-0.7,0.7-0.7c0,0,0.8-0.8,0.7-0.8l0.9,1c32.4,33.9,64.1,68.5,96.5,102.4c0.6,0.7,0.6,1.6,0.6,2.5
	c-0.8,32.8-1.3,65.4-2.1,98.2c0,0.4,0,0.7,0.3,1l-1.1-1.1C1073.7,176.5,1040.8,143.2,1008.5,109.4"/>
<path class="st1" d="M985.8,468.8l-99.5,105.8l-102.8-96.7c39.8-2.8,77.2-3.9,115.5-5.1C927.7,472,957.3,469.9,985.8,468.8"/>
<path class="st2" d="M650,302.2l4.9,141.3c-24.8-22.7-48.8-45.5-73.1-68.2C604.4,351.1,626.8,326.6,650,302.2"/>
</svg>
