<?xml version="1.0" encoding="utf-8"?>
<!-- Generator: Adobe Illustrator 22.1.0, SVG Export Plug-In . SVG Version: 6.00 Build 0)  -->
<svg version="1.1" id="Ebene_1" xmlns="http://www.w3.org/2000/svg" xmlns:xlink="http://www.w3.org/1999/xlink" x="0px" y="0px"
	 viewBox="0 0 1133.9 1133.9" style="enable-background:new 0 0 1133.9 1133.9;" xml:space="preserve">
<style type="text/css">
	.st0{fill:#D6A6A6;}
	.st1{fill:#C21718;}
	.st2{fill:#702121;}
	.st3{fill:#991A19;}
	.st4{fill:#BF7070;}
	.st5{fill:#F5D6DE;}
	.st6{fill:#B83939;}
</style>
<path class="st0" d="M1120.3,310.6c-53.8-50.3-107.1-100.8-160.7-151.2c50.3-53.5,100.6-107.1,151.2-160.7L1120.3,310.6z"/>
<path class="st1" d="M965.8,894.4c49-49.8,95.8-99.7,146.9-149.5l2.6,296.4C1063.4,992.2,1015.5,943.3,965.8,894.4"/>
<path class="st2" d="M966.8,867.1C943,841.9,919,816.6,895,791.2c25.3-23.9,50.6-47.9,75.9-71.8c23.9,25.3,47.9,50.6,71.8,75.9
	L966.8,867.1z"/>
<path class="st3" d="M795.7,653c0,1,0.1,1.7-0.5,2.4c-0.1,0.1,0,0.2-0.1,0.3c-24.9,22.8-49.7,45.6-74.6,68.4
	c-0.1,0.1-0.2,0.2-0.4,0.4c-0.2,0.1-0.4,0.3-0.5,0.5c0,0-1.2,0-1.2,0c0,0-1.2,0-1.2,0l0.1-1.4c2.1-48.4,5.3-96.8,7.4-145.3
	c0-0.9,0.8-1.6,1.5-2.2c25.1-22.9,49.6-45.9,74.6-68.8c0.3-0.2,0.4-0.5,0.4-0.9l-0.1,1.6C799,556.4,797.8,604.7,795.7,653"/>
<path class="st4" d="M872.3,595.5l1,148.4l-145.7,1c27.8-30.5,54.8-57.1,82.7-85.4C831.2,638.4,851.7,616.7,872.3,595.5"/>
<path class="st5" d="M890.7,769.4V623.2c24.8,24.4,48.8,48.8,73.1,73.1C939.6,720.5,915.6,745,890.7,769.4"/>
<path class="st6" d="M954.2,517.8l7.7,146.1c-26-23.1-51.3-46.2-76.9-69.2L954.2,517.8z"/>
<path class="st0" d="M699.9,745.9c-47.9-51-95.3-102.2-142.9-153.3c51-47.6,102-95.2,153.3-142.9L699.9,745.9z"/>
<path class="st1" d="M890.7,559.5c-51.3-47.4-102.6-92.6-154-142.1l296.1-11.9C985.4,459,937.9,508.3,890.7,559.5"/>
<path class="st2" d="M965.9,509.3c23-25.8,46.3-51.9,69.5-78c26,23.1,52,46.4,78,69.5c-23.2,26-46.4,52-69.5,78L965.9,509.3z"/>
<path class="st3" d="M843.8,292.9c0.7-0.7,1-1.4,2-1.5c0.1,0,0.1-0.2,0.2-0.2c33.7-1.5,67.4-3,101.1-4.5c0.2,0,0.3,0,0.5-0.1
	c0.2,0,0.5,0,0.7,0c0,0,0.9,0.8,0.9,0.8c0,0,0.9,0.8,1,0.8l-0.9,1c-32.8,35.8-66.3,70.8-99,106.5c-0.6,0.7-1.6,0.7-2.6,0.7
	c-33.9,1.5-67.5,3.3-101.4,4.8c-0.4,0-0.6,0.1-0.9,0.4l1.1-1.2C779.1,364.9,811.1,328.6,843.8,292.9"/>
<path class="st4" d="M728.7,180l102.2,107.7L725.2,387.9c-0.5-41.3,1-79.2,2-118.8C728,239.4,728.2,209.4,728.7,180"/>
<path class="st5" d="M1049.6,769.3l2.6-146.2c24.4,24.8,47.9,49.6,71.8,74.4C1099.3,721.4,1074.8,745.4,1049.6,769.3"/>
<path class="st6" d="M1119.5,340.6l5.1,146.2c-25.6-23.5-50.5-47.1-75.7-70.6L1119.5,340.6z"/>
<path class="st5" d="M911.1,1104.5V958.3c24.8,24.4,48.8,48.8,73.1,73.1C959.9,1055.7,935.9,1080.1,911.1,1104.5"/>
<path class="st5" d="M847.8,277l98.8-107.8c1.8,34.7,3,68.9,4.5,103.3C916.8,274,882.5,275.8,847.8,277"/>
<path class="st4" d="M751.4,965.2h148.4v145.7c-30.3-28-56.7-55.2-84.8-83.3C794,1006.6,772.4,985.9,751.4,965.2"/>
<path class="st2" d="M576.1,415c23.4-25.5,47-51.3,70.6-77c25.6,23.5,51.4,47.1,77,70.6c-23.5,25.7-47.1,51.4-70.6,77L576.1,415z"/>
</svg>
