<?xml version="1.0" standalone="no"?>
<!DOCTYPE svg PUBLIC "-//W3C//DTD SVG 20010904//EN"
 "http://www.w3.org/TR/2001/REC-SVG-20010904/DTD/svg10.dtd">
<svg version="1.0" xmlns="http://www.w3.org/2000/svg"
 width="1763.000000pt" height="1763.000000pt" viewBox="0 0 1763.000000 1763.000000"
 preserveAspectRatio="xMidYMid meet">
<metadata>
Created by potrace 1.11, written by Peter Selinger 2001-2013
</metadata>
<g transform="translate(0.000000,1763.000000) scale(0.100000,-0.100000)"
fill="#000000" stroke="none">
<path d="M11730 13518 c-1499 -2261 -2726 -4115 -2728 -4120 -2 -4 2 -8 10 -8
7 0 1551 311 3430 692 2863 580 3417 695 3413 708 -2 8 -313 1541 -690 3405
-377 1865 -688 3400 -692 3413 -3 12 -8 22 -12 22 -3 0 -1232 -1850 -2731
-4112z"/>
<path d="M90 14646 c0 -7 354 -1460 786 -3227 432 -1768 803 -3289 826 -3381
30 -125 44 -168 55 -168 20 0 6775 1649 6782 1656 2 2 0 8 -5 13 -12 11 -8434
5121 -8439 5121 -3 0 -5 -6 -5 -14z"/>
<path d="M14105 9835 c-1484 -426 -1680 -485 -1678 -501 2 -17 972 -3347 976
-3350 3 -3 3357 973 3361 977 6 5 -968 3359 -974 3358 -3 0 -761 -218 -1685
-484z"/>
<path d="M8633 8952 c-1898 -296 -3454 -540 -3457 -543 -4 -3 892 -662 1990
-1463 1924 -1405 1997 -1457 2014 -1440 27 30 2900 3951 2906 3968 3 9 5 16 3
15 -2 0 -1557 -242 -3456 -537z"/>
<path d="M3553 7832 c-1633 -226 -1713 -238 -1713 -257 0 -40 469 -3427 475
-3433 3 -4 9 -2 13 4 4 6 673 887 1487 1958 814 1071 1482 1951 1483 1956 2 6
-5 9 -15 9 -10 -1 -789 -108 -1730 -237z"/>
<path d="M4375 6278 c-467 -684 -1096 -1603 -1397 -2044 l-547 -800 323 -1712
c177 -942 326 -1715 329 -1719 4 -3 9 -4 11 -2 5 5 2710 3960 2752 4024 l33
50 -319 1715 c-176 943 -320 1718 -320 1722 0 5 -3 8 -8 8 -4 0 -390 -559
-857 -1242z"/>
<path d="M15117 6082 c-928 -191 -1688 -351 -1689 -357 -1 -15 4097 -2727
4099 -2713 2 7 -154 778 -345 1713 -264 1287 -352 1700 -363 1702 -8 0 -774
-155 -1702 -345z"/>
</g>
</svg>
